<?xml version="1.0" ?><svg height="512pt" viewBox="-73 0 512 512" width="512pt" xmlns="http://www.w3.org/2000/svg"><path d="m183.277344 0c-83.519532 0-128 68.136719-128 117.332031 0 27.882813 16.617187 74.667969 128 74.667969 111.378906 0 128-46.785156 128-74.667969 0-56.425781-48.941406-117.332031-128-117.332031zm0 0" fill="#00bcd4"/><path d="m323.949219 201.257812c-2.773438-2.238281-6.484375-2.984374-9.855469-1.941406-28.78125 8.769532-77.699219 14.015625-130.816406 14.015625-53.207032 0-102.144532-5.246093-130.882813-14.035156-5.671875-1.8125-11.601562 1.449219-13.332031 7.058594-.53125 1.835937-.597656 3.714843-.210938 5.441406 17.234376 179.628906 75.21875 300.203125 144.425782 300.203125 69.394531 0 127.488281-121.152344 144.53125-301.484375.34375-3.539063-1.109375-6.996094-3.859375-9.257813zm0 0" fill="#cfd8dc"/><path d="m183.277344 192c-111.382813 0-128-46.785156-128-74.667969 0-49.195312 44.480468-117.332031 128-117.332031 79.058594 0 128 60.90625 128 117.332031 0 27.882813-16.621094 74.667969-128 74.667969zm0-170.667969c-69.613282 0-106.667969 55.746094-106.667969 96 0 46.402344 66.835937 53.335938 106.667969 53.335938 39.828125 0 106.664062-6.933594 106.664062-53.335938 0-38.71875-33.898437-96-106.664062-96zm0 0"/><path d="m183.277344 512c-69.207032 0-127.191406-120.574219-144.425782-300.203125-.386718-1.726563-.320312-3.605469.210938-5.441406 1.730469-5.609375 7.660156-8.871094 13.332031-7.058594 28.738281 8.789063 77.675781 14.035156 130.882813 14.035156 53.117187 0 102.035156-5.246093 130.816406-14.015625 3.347656-1.042968 7.058594-.320312 9.855469 1.941406 2.75 2.242188 4.203125 5.71875 3.882812 9.257813-17.066406 180.332031-75.160156 301.484375-144.554687 301.484375zm-121.75-288.296875c17.171875 155.582031 67.542968 266.964844 121.75 266.964844 54.226562 0 104.574218-111.359375 121.75-266.964844-31 6.953125-74.96875 10.964844-121.75 10.964844-46.804688 0-90.773438-4.011719-121.75-10.964844zm0 0"/><path d="m49.367188 220.203125c-1.601563 0-3.222657-.363281-4.777344-1.132813-5.269532-2.621093-7.445313-9.066406-4.824219-14.335937 2.625-5.226563 9.003906-7.402344 14.273437-4.777344l.085938.042969c5.269531 2.644531 7.402344 9.046875 4.777344 14.316406-1.875 3.730469-5.652344 5.886719-9.535156 5.886719zm0 0"/><path d="m119.277344 266.667969c0 5.890625-4.777344 10.664062-10.667969 10.664062s-10.667969-4.773437-10.667969-10.664062 4.777344-10.667969 10.667969-10.667969 10.667969 4.777344 10.667969 10.667969zm0 0"/><path d="m161.941406 266.667969c0 5.890625-4.773437 10.664062-10.664062 10.664062s-10.667969-4.773437-10.667969-10.664062 4.777344-10.667969 10.667969-10.667969 10.664062 4.777344 10.664062 10.667969zm0 0"/><path d="m204.609375 266.667969c0 5.890625-4.773437 10.664062-10.667969 10.664062-5.890625 0-10.664062-4.773437-10.664062-10.664062s4.773437-10.667969 10.664062-10.667969c5.894532 0 10.667969 4.777344 10.667969 10.667969zm0 0"/><path d="m108.609375 128c-2.367187 0-4.757813-.789062-6.71875-2.390625-4.585937-3.730469-5.292969-10.453125-1.558594-15.015625 1.152344-1.410156 11.691407-13.78125 28.117188-14.507812 10.753906-.40625 21.097656 4.179687 30.484375 13.800781 4.097656 4.226562 4.011718 10.988281-.210938 15.082031-4.226562 4.121094-10.988281 4.035156-15.082031-.210938-4.972656-5.078124-9.644531-7.511718-14.253906-7.359374-6.910157.296874-12.457031 6.613281-12.5 6.675781-2.113281 2.582031-5.183594 3.925781-8.277344 3.925781zm0 0"/><path d="m257.941406 128c-2.792968 0-5.566406-1.089844-7.65625-3.242188-4.84375-4.992187-9.214844-7.210937-13.996094-7.316406-7.144531.210938-12.777343 6.695313-12.84375 6.761719-3.816406 4.4375-10.472656 5.035156-14.996093 1.257813-4.480469-3.777344-5.121094-10.390626-1.386719-14.910157 1.175781-1.410156 11.820312-13.78125 28.265625-14.445312 10.796875-.617188 20.992187 4.203125 30.296875 13.804687 4.09375 4.222656 3.988281 10.984375-.257812 15.082032-2.070313 2.003906-4.757813 3.007812-7.425782 3.007812zm0 0"/><path d="m83.605469 490.667969c-3.433594 0-6.804688-1.664063-8.875-4.757813-35.261719-52.929687-61.78125-137.898437-74.6445315-239.234375-.7460935-5.84375 3.3945315-11.175781 9.2382815-11.921875 5.738281-.664062 11.179687 3.390625 11.945312 9.234375 12.460938 98.132813 37.761719 179.863281 71.234375 230.101563 3.261719 4.90625 1.941406 11.542968-2.964844 14.785156-1.816406 1.214844-3.882812 1.792969-5.933593 1.792969zm0 0"/><path d="m282.945312 490.667969c-2.046874 0-4.09375-.578125-5.910156-1.792969-4.882812-3.265625-6.226562-9.878906-2.964844-14.785156 33.472657-50.238282 58.773438-131.96875 71.234376-230.101563.746093-5.84375 6.121093-9.898437 11.945312-9.234375 5.824219.746094 9.984375 6.078125 9.238281 11.921875-12.886719 101.335938-39.382812 186.304688-74.648437 239.234375-2.089844 3.09375-5.460938 4.757813-8.894532 4.757813zm0 0"/></svg>